<svg version="1" xmlns="http://www.w3.org/2000/svg" width="560" height="560" viewBox="0 0 420.000000 420.000000"><path d="M147.8 35.5c-.2.2-2.8.6-5.8 1-17.3 2.1-33.6 7.2-51.5 16.1-37.3 18.5-66.4 52.2-80.4 93C2.9 167 .2 184.3.3 210.5c0 17.8 1.4 32.6 4.4 45 .4 1.6.7 3.2.8 3.5.1.3.5 2.1.9 4 4.8 21.4 17.3 46.3 32.6 65.4 21.3 26.5 56.2 47.6 88 53.2 1.4.3 3.1.7 3.8.9 5.4 1.9 42.2 2.8 50.6 1.2 9.4-1.8 21.4-5.1 27.9-7.8 15.7-6.5 31.6-17.8 40.4-28.8 2.6-3.3 4.8-5.9 4.9-5.8.1.1.5 2.7.9 5.7.3 3 .8 6.6 1 8 .2 1.4.7 5.8 1 9.7.4 4 .8 8.1 1 9 .2 1 .4 2.4.4 3 .1 1 5.9 1.3 25.6 1.3H310V260h110v-60H310V90h-60v110H140v30c0 23.3.3 30 1.3 30.1.6 0 25.4.1 55 .1 29.6.1 54 .4 54.2.8.3.4-.6 4-2 8-12.4 36.3-44.3 56.8-86.5 55.5-13.5-.4-15.7-.8-27-4.2-37-11-61.9-40.8-69.6-83.1-2.3-12.5-2.7-36.4-.8-48.7 3.9-26.4 13.6-47.6 28.6-62.8 18.8-18.9 41.3-28.6 68-29.2 17.2-.4 33.9 2.9 43.6 8.6 1.8 1 3.5 1.9 3.8 1.9.2 0 .3-14.9.2-33.2l-.3-33.2-5.1-1.3c-10.9-2.7-24.4-4.1-39.6-4.1-8.6 0-15.8.2-16 .3z"/></svg>